<svg width="45" height="45" viewBox="0 0 45 45" fill="none" xmlns="http://www.w3.org/2000/svg">
<g clip-path="url(#clip0_241_42)">
<path d="M28.125 22.5C32.2688 22.5 35.625 19.1344 35.625 15C35.625 10.8562 32.2688 7.5 28.125 7.5C23.9812 7.5 20.625 10.8562 20.625 15C20.625 19.1344 23.9812 22.5 28.125 22.5ZM11.25 18.75V13.125H7.5V18.75H1.875V22.5H7.5V28.125H11.25V22.5H16.875V18.75H11.25ZM28.125 26.25C23.1281 26.25 13.125 28.7531 13.125 33.75V37.5H43.125V33.75C43.125 28.7531 33.1219 26.25 28.125 26.25Z" fill="#247E56"/>
</g>
<defs>
<clipPath id="clip0_241_42">
<rect width="45" height="45" fill="white"/>
</clipPath>
</defs>
</svg>
