<svg width="30" height="38" viewBox="0 0 30 38" fill="none" xmlns="http://www.w3.org/2000/svg">
<path fill-rule="evenodd" clip-rule="evenodd" d="M9.94096 0.397683C10.2001 0.14254 10.5409 0 10.9091 0H23.1818C26.9455 0 30 3.03864 30 6.78571V31.2143C30 34.9614 26.9455 38 23.1818 38H6.81818C3.05455 38 0 34.9614 0 31.2143V10.8571C0 10.4975 0.150053 10.1515 0.395508 9.89768L9.94096 0.397683ZM10.9091 3.27614V10.8571H3.28641L10.9091 3.27614ZM2.72727 13.5714H12.2727C13.0227 13.5714 13.6364 12.9634 13.6364 12.2143V2.71429H23.1818C25.4455 2.71429 27.2727 4.53693 27.2727 6.78571V31.2143C27.2727 33.4631 25.4455 35.2857 23.1818 35.2857H6.81818C4.55455 35.2857 2.72727 33.4631 2.72727 31.2143V13.5714Z" fill="#247E56"/>
</svg>
