<svg width="45" height="45" viewBox="0 0 45 45" fill="none" xmlns="http://www.w3.org/2000/svg">
<path fill-rule="evenodd" clip-rule="evenodd" d="M34.5113 6.74959H33.8346C33.8346 3.02241 30.1128 0 25.3759 0H19.6241C15.2256 0 11.1654 3.02241 11.1654 6.74959H9.47368H8.45865V6.74959H2.70677C1.35338 6.74959 0 7.75797 0 8.99946C0 10.2437 1.35338 11.2493 2.70677 11.2493V38.2504C2.70677 41.9776 6.76692 45 11.1654 45H33.8346C38.5714 45 42.2932 41.9776 42.2932 38.2504V11.2493C43.6466 11.2493 45 10.2437 45 8.99946C45 7.75797 43.6466 6.74959 42.2932 6.74959H36.5414V6.74959H34.5113ZM36.54 11.2494H30.7881V40.5004H33.8332C35.1866 40.5004 36.54 39.492 36.54 38.2505V15.7492V11.2494ZM25.3749 40.5004V11.2494H19.623V40.5004H25.3749ZM8.45898 15.7492V11.2494H14.2109V40.5004H11.1658C9.81237 40.5004 8.45898 39.492 8.45898 38.2505V15.7492ZM16.918 6.74972H19.6247H22.6698H25.3766H28.0834C28.0834 5.50823 26.73 4.49985 25.3766 4.49985H19.6247C18.2714 4.49985 16.918 5.50823 16.918 6.74972Z" fill="#D87824"/>
</svg>
