<svg width="42" height="38" viewBox="0 0 42 38" fill="none" xmlns="http://www.w3.org/2000/svg">
<path fill-rule="evenodd" clip-rule="evenodd" d="M5.70007 0.137758C2.85007 -0.552378 0.0750586 1.43732 0.0600586 4.16726L0 29.8637C0 31.7699 1.38 33.4397 3.375 33.9128L19.515 37.8226C20.52 38.0591 21.555 38.0591 22.545 37.8226L38.64 33.9128C40.62 33.4397 42 31.77 42 29.8777V4.18119C42 1.44569 39.21 -0.550947 36.36 0.143363L21.8251 3.67614C21.3301 3.79719 20.8051 3.79716 20.3101 3.6775L5.70007 0.137758ZM3.06006 4.17286C3.06006 3.26288 3.99006 2.59915 4.93506 2.83012L19.5 6.35738V34.9424L4.125 31.2274C3.465 31.0604 3 30.5038 3 29.8777L3.06006 4.17286ZM22.5 34.9563L37.875 31.2274C38.535 31.0604 39 30.5177 39 29.8777V4.18119C39 3.26982 38.07 2.60336 37.125 2.83573L22.5901 6.3685C22.5601 6.37546 22.53 6.38244 22.5 6.38939V34.9563Z" fill="#D77824"/>
</svg>
